PathFileType	4	(X/Y/Z)	 s03c0201.trc
DataRate	CameraRate	NumFrames	NumMarkers	Units	OrigDataRate	OrigDataStartFrame	OrigNumFrames
200	200	4	52	mm	200	1	2000
Frame#	Time	racr			lacr			c7			jug			rlel			rdr			llel			ldr			s2			lic			ric			lasi			rasi			rpsi			lpsi			rgt			lgt			rth1			rth2			rth3			rth4			rlfc			rmfc			rsh1			rsh2			rsh3			rsh4			rlmal			rmmal			rcal			rtoe			rmt5			rmt1			lth1			lth2			lth4			lth3			llfc			lmfc			lsh1			lsh2			lsh3			lsh4			llmal			lmmal			lcal			ltoe			lmt1			lmt5			SBIKE			LBIKE			RBIKE			
		X1	Y1	Z1	X2	Y2	Z2	X3	Y3	Z3	X4	Y4	Z4	X5	Y5	Z5	X6	Y6	Z6	X7	Y7	Z7	X8	Y8	Z8	X9	Y9	Z9	X10	Y10	Z10	X11	Y11	Z11	X12	Y12	Z12	X13	Y13	Z13	X14	Y14	Z14	X15	Y15	Z15	X16	Y16	Z16	X17	Y17	Z17	X18	Y18	Z18	X19	Y19	Z19	X20	Y20	Z20	X21	Y21	Z21	X22	Y22	Z22	X23	Y23	Z23	X24	Y24	Z24	X25	Y25	Z25	X26	Y26	Z26	X27	Y27	Z27	X28	Y28	Z28	X29	Y29	Z29	X30	Y30	Z30	X31	Y31	Z31	X32	Y32	Z32	X33	Y33	Z33	X34	Y34	Z34	X35	Y35	Z35	X36	Y36	Z36	X37	Y37	Z37	X38	Y38	Z38	X39	Y39	Z39	X40	Y40	Z40	X41	Y41	Z41	X42	Y42	Z42	X43	Y43	Z43	X44	Y44	Z44	X45	Y45	Z45	X46	Y46	Z46	X47	Y47	Z47	X48	Y48	Z48	X49	Y49	Z49	X50	Y50	Z50	X51	Y51	Z51	X52	Y52	Z52	
1	0.0050	486.293987	1451.485507	-61.502676	486.076886	1473.935203	-377.917282	403.804914	1528.893289	-217.639657	459.643974	1364.261241	-220.113381	517.319204	1176.875389	31.446894	737.722987	988.683072	-15.282609	538.187503	1204.823322	-464.059516	744.760220	982.071326	-434.105805	-87.470499	1205.586947	-247.390881	111.801498	1215.240055	-421.615030	81.368312	1236.729771	-54.083391	120.139104	1135.458778	-382.360011	97.952636	1171.655695	-96.291977	-62.207960	1257.617376	-202.036515	-50.613419	1252.878151	-284.741608	16.416900	1160.000734	-36.000207	38.962587	1100.110345	-434.255638	140.367228	1076.951206	-11.681926	228.976845	1075.264990	-5.254345	304.222978	1032.877346	-2.534817	240.427061	1108.083180	-18.114210	427.490084	971.972806	-16.083069	440.832045	960.306363	-144.992812	355.596073	823.248551	-6.216685	333.519151	739.380077	-25.809638	268.878335	678.409025	-34.362299	358.659845	728.222871	-52.335413	197.797890	566.818346	-63.879928	224.160587	583.882895	-150.710517	129.450912	524.752532	-107.924003	438.494219	508.149822	-109.439617	319.487291	494.346293	-40.464822	345.175160	510.980541	-154.774356	104.385544	955.512870	-457.606612	160.425816	889.155566	-458.329990	193.301039	904.710364	-452.019218	176.496772	801.858220	-447.263583	245.774401	691.899929	-428.694289	250.568570	682.089025	-305.909091	162.439022	539.021092	-450.214063	152.743446	456.639679	-431.335694	98.672392	382.702326	-422.477016	181.241541	447.653760	-405.743674	42.886802	268.443765	-400.009919	78.584348	280.825401	-310.064959	-26.194592	225.353661	-349.967314	281.634110	196.327498	-354.924686	189.687541	200.671813	-311.488056	159.657125	180.854608	-425.064727	-261.837063	929.757136	-243.434119	-4.147936	83.295029	-432.263798	-8.813797	80.921506	-32.354343	
2	0.0100	486.291636	1451.472044	-61.531370	486.072189	1473.919603	-377.936013	403.787319	1528.918983	-217.643527	459.608471	1364.271347	-220.119512	517.320541	1176.859654	31.443658	737.705125	988.696915	-15.261733	538.169515	1204.825310	-464.079799	744.748414	982.076254	-434.099802	-87.454974	1205.582558	-247.415174	111.803490	1215.234990	-421.667100	81.357323	1236.721658	-54.094925	120.102121	1135.472948	-382.322740	97.987360	1171.614489	-96.366470	-62.221771	1257.619507	-202.056401	-50.611228	1252.858770	-284.783445	16.401816	1159.989494	-36.024906	38.932198	1100.116705	-434.275865	140.370936	1076.921046	-11.690164	228.982407	1075.276621	-5.256957	304.210128	1032.876498	-2.527396	240.428069	1108.089593	-18.108022	427.477098	971.942909	-16.076985	441.408814	958.167020	-140.540195	355.590850	823.255420	-6.232002	333.512897	739.385189	-25.805076	268.867580	678.394906	-34.368283	358.673164	728.221981	-52.341385	197.757364	566.806505	-63.876733	224.154255	583.878898	-150.713184	129.437272	524.755966	-107.923086	438.463699	508.162936	-109.450381	319.470348	494.363898	-40.481071	345.142799	510.995542	-154.779618	104.375881	955.506210	-457.615240	160.414932	889.139383	-458.348957	193.294275	904.658192	-452.012889	176.471867	801.842120	-447.263443	245.752366	691.906932	-428.674572	250.550070	682.090600	-305.892359	162.420610	539.012422	-450.201307	152.739722	456.641638	-431.352033	98.676186	382.689646	-422.458968	181.248080	447.642217	-405.719392	42.888164	268.420477	-400.006521	78.593670	280.793302	-310.067410	-26.178955	225.326225	-349.968018	281.646540	196.334590	-354.921691	189.694139	200.661724	-311.485007	159.669643	180.853630	-425.052129	-261.750478	929.734465	-243.600476	-4.153124	83.329451	-432.241728	-8.791664	80.900445	-32.362687	
3	0.0150	486.302661	1451.453482	-61.522655	486.049888	1473.919184	-377.947959	403.749488	1528.920156	-217.615549	462.675260	1363.500203	-215.365807	517.308506	1176.855843	31.446114	737.718589	988.671952	-15.269577	538.162328	1204.811393	-464.083204	744.746525	982.076321	-434.097995	-87.460853	1205.571388	-247.425458	111.779971	1215.234862	-421.630406	81.343334	1236.715945	-54.120180	120.102121	1135.472948	-382.322740	97.986988	1171.612595	-96.365978	-62.244577	1257.608760	-202.058164	-50.624908	1252.854705	-284.789837	16.392243	1159.977983	-36.013449	38.916382	1100.109836	-434.287455	140.354308	1076.912667	-11.694717	228.971618	1075.274250	-5.265858	304.210926	1032.893399	-2.532233	240.400757	1108.076157	-18.106314	427.466897	971.966282	-16.061197	441.386008	958.156089	-140.503420	355.574677	823.259079	-6.220069	333.471526	739.377121	-25.828680	268.848714	678.400782	-34.367838	358.638507	728.244263	-52.328724	197.741071	566.813725	-63.872796	224.143640	583.885529	-150.699097	129.422821	524.748235	-107.911642	438.439963	508.173023	-109.443785	319.427022	494.371961	-40.475847	345.126353	510.995496	-154.762002	104.369406	955.493804	-457.613071	160.392206	889.120847	-458.342976	193.271522	904.643726	-452.011192	176.449828	801.832276	-447.250055	245.722660	691.888706	-428.646984	250.512256	682.076287	-305.896162	162.407254	539.001563	-450.186860	152.743094	456.629224	-431.327129	98.677808	382.657233	-422.440235	181.235844	447.633025	-405.716667	42.891888	268.397753	-400.007979	78.654985	280.747870	-310.086995	-26.296621	225.371842	-350.113948	281.658727	196.352507	-354.912720	189.720341	200.679225	-311.503910	159.697443	180.822496	-425.048844	-261.747275	929.743418	-243.569989	-4.128255	83.308247	-432.260413	-8.797810	80.909182	-32.362938	
4	0.0200	486.280197	1451.441717	-61.518435	486.026386	1473.926689	-377.957187	403.739649	1528.914916	-217.625705	460.154764	1363.473285	-216.832169	517.293071	1176.852805	31.453666	737.699803	988.694632	-15.243610	538.762229	1204.768281	-463.454394	744.745965	982.075600	-434.082570	-87.467204	1205.561312	-247.427926	111.190771	1214.143899	-418.780247	81.626708	1236.664722	-54.104883	117.785503	1133.310615	-377.801244	97.986842	1171.640151	-96.367181	-62.247360	1257.608382	-202.071779	-50.588237	1253.267090	-284.545137	16.404708	1159.976389	-36.020176	38.942167	1100.721898	-435.358890	140.342907	1076.907984	-11.697926	228.969650	1075.271853	-5.262496	304.363318	1032.867118	-2.399323	239.587590	1108.503303	-18.852420	427.809582	971.455895	-15.762274	441.674150	959.232582	-142.723858	355.558060	823.223044	-6.182834	333.456573	739.386928	-25.831036	268.812874	678.418494	-34.356298	359.851533	729.039687	-51.993688	197.645658	566.853178	-63.762331	224.187971	583.945461	-150.604007	129.400446	524.760860	-107.903136	438.423302	508.179002	-109.451687	319.423068	494.378412	-40.474224	345.106931	511.009995	-154.776644	104.306389	955.477579	-457.680796	160.904980	888.225051	-456.571082	193.699216	904.138475	-451.015499	176.433762	801.823932	-447.247251	246.726380	691.077449	-427.177297	250.492003	682.050502	-305.863153	162.988270	538.139220	-448.735025	152.613047	454.554042	-428.195818	98.677166	382.642117	-422.432323	181.284464	446.187597	-403.228181	42.908594	268.630332	-400.398017	78.632878	280.738149	-310.079872	-26.289975	225.342316	-350.106119	282.045336	196.312178	-354.750686	189.720758	200.667667	-311.498478	160.333698	179.198079	-422.897827	-261.785406	929.744887	-243.728960	-4.139040	83.304672	-432.250749	-8.797764	80.902099	-32.353927	
